<svg xmlns="http://www.w3.org/2000/svg" class="icon" viewBox="0 0 1024 1024">
    <path fill-rule="evenodd" clip-rule="evenodd" d="M512 64L900.128 283.501L903.341 285.429V704.826L832.174 667.386V555.386L512 374.29L191.826 555.386V667.386L120.659 704.826V285.268L123.872 283.501L512 64ZM832.013 473.665V326.887L514.731 147.397L191.826 330.1V473.756L512 292.66L832.013 473.665Z" fill="black"/>
    <path d="M872.175 749.498L512 544.941L151.825 749.498L511.839 960L644.696 883.834L574.814 841.733L511.518 877.888L292.232 753.354L512.161 626.892L730.161 750.783L649.194 796.901L719.077 839.162L872.175 749.498Z" fill="black"/>
</svg>
